<svg width="800" height="400" viewBox="0 0 800 400" fill="none" xmlns="http://www.w3.org/2000/svg">
<g id="cm-logo">
<path id="cm-logo_2" fill-rule="evenodd" clip-rule="evenodd" d="M400 800C620.914 800 800 620.914 800 400C800 179.086 620.914 0 400 0C179.086 0 0 179.086 0 400C0 620.914 179.086 800 400 800ZM349.143 311.429C359.429 327.429 363.429 354.857 363.429 354.857H330.286C330.286 354.857 328.409 342.231 325.143 334.857C320.189 323.672 315.307 317.877 305.714 310.286C294.178 301.156 287.429 299.429 270.857 296C254.286 292.571 229.714 294.286 211.429 305.143C193.143 316 187.393 324.984 178.857 342.286C170.493 359.241 169.28 370.808 169.143 389.714C168.989 410.942 170.273 424.295 180.571 442.857C192.854 464.996 208.571 479.429 229.714 485.143C250.857 490.857 278.857 487.429 292 482.286C305.143 477.143 316.854 468.928 325.714 454.286C331.341 444.987 334.857 428 334.857 428H367.429C367.429 428 363.867 448.263 358.286 460C349.783 477.882 345.143 482.857 325.714 498.857C306.286 514.857 270.857 517.387 270.857 517.387V556.571H229.714V515.429C229.714 515.429 215.814 512.528 207.429 509.143C192.334 503.049 184.261 497.614 172.571 486.286C157.317 471.503 151.26 459.963 144 440C137.204 421.313 135.864 409.599 136 389.714C136.153 367.438 137.821 354.076 146.857 333.714C156.471 312.05 166.286 299.429 184 285.714C201.714 272 229.714 267.066 229.714 267.066V226.286H270.857V265.714C270.857 265.714 289.478 267.802 300.571 272C323.421 280.648 338.857 295.429 349.143 311.429ZM414.286 512H444V313.714L509.714 462.286H549.143L614.857 313.714V512H647.429V412.571V371.429V272H604L533.714 432H528L456.571 272H414.286V371.429V412.571V512ZM750 400C750 210.645 589.355 50 400 50C210.645 50 50 210.645 50 400C50 589.355 210.645 750 400 750C589.355 750 750 589.355 750 400ZM100 400C100 234.315 234.315 100 400 100C565.685 100 700 234.315 700 400C700 565.685 565.685 700 400 700C234.315 700 100 565.685 100 400Z" fill="url(#paint0_linear_12:12)"/>
</g>
<defs>
<linearGradient id="paint0_linear_12:12" x1="800" y1="400" x2="0" y2="400" gradientUnits="userSpaceOnUse">
<stop stop-color="#F7931E" stop-opacity="0"/>
<stop offset="1" stop-color="#FCBD38"/>
</linearGradient>
</defs>
</svg>
